0
SECTION
2
HEADER
9
$INSUNITS
70
4
9
$ACADVER
1
AC1014
9
$HANDSEED
5
FFFF
0
ENDSEC
0
SECTION
2
TABLES
0
TABLE
2
VPORT
5
8
100
AcDbSymbolTable
0
ENDTAB
0
TABLE
2
LTYPE
5
5
100
AcDbSymbolTable
0
LTYPE
5
14
100
AcDbSymbolTableRecord
100
AcDbLinetypeTableRecord
2
BYBLOCK
70
0
0
LTYPE
5
15
100
AcDbSymbolTableRecord
100
AcDbLinetypeTableRecord
2
BYLAYER
70
0
0
ENDTAB
0
TABLE
2
LAYER
5
2
100
AcDbSymbolTable
70
2
0
LAYER
5
50
100
AcDbSymbolTableRecord
100
AcDbLayerTableRecord
2
0
70
0
6
CONTINUOUS
0
ENDTAB
0
TABLE
2
STYLE
5
3
100
AcDbSymbolTable
70
1
0
STYLE
5
11
100
AcDbSymbolTableRecord
100
AcDbTextStyleTableRecord
2
STANDARD
70
0
0
ENDTAB
0
TABLE
2
VIEW
5
6
100
AcDbSymbolTable
70
0
0
ENDTAB
0
TABLE
2
UCS
5
7
100
AcDbSymbolTable
70
0
0
ENDTAB
0
TABLE
2
APPID
5
9
100
AcDbSymbolTable
70
2
0
APPID
5
12
100
AcDbSymbolTableRecord
100
AcDbRegAppTableRecord
2
ACAD
70
0
0
ENDTAB
0
TABLE
2
DIMSTYLE
5
A
100
AcDbSymbolTable
70
1
0
ENDTAB
0
TABLE
2
BLOCK_RECORD
5
1
100
AcDbSymbolTable
70
1
0
BLOCK_RECORD
5
1F
100
AcDbSymbolTableRecord
100
AcDbBlockTableRecord
2
*MODEL_SPACE
0
BLOCK_RECORD
5
1B
100
AcDbSymbolTableRecord
100
AcDbBlockTableRecord
2
*PAPER_SPACE
0
ENDTAB
0
ENDSEC
0
SECTION
2
BLOCKS
0
BLOCK
5
20
100
AcDbEntity
100
AcDbBlockBegin
2
*MODEL_SPACE
0
ENDBLK
5
21
100
AcDbEntity
100
AcDbBlockEnd
0
BLOCK
5
1C
100
AcDbEntity
100
AcDbBlockBegin
2
*PAPER_SPACE
0
ENDBLK
5
1D
100
AcDbEntity
100
AcDbBlockEnd
0
ENDSEC
0
SECTION
2
ENTITIES
0
LWPOLYLINE
5
100
100
AcDbEntity
8
0
100
AcDbPolyline
90
14
70
1
43
0.0
10
-53.414212608698683
20
-29.325000286102298
42
0.19891236737966031
10
-52.70710582751213
20
-29.032107067288841
10
-33.292892265139038
20
-9.6178935049157577
42
0.19891236737965801
10
-32.999999046325577
20
-8.9107867237292169
10
-32.999999046325584
20
42.174999713897705
42
0.41421356237309503
10
-35.499999046325577
20
44.674999713897705
10
-134.49999904632446
20
44.674999713897698
42
0.41421356237310197
10
-135.99999904632449
20
43.174999713897705
10
-135.99999904632449
20
2.1749997138977095
42
0.41421356237309592
10
-134.49999904632449
20
0.67499971389770597
10
-106.79999904632447
20
0.67499971389770597
42
-0.41421356237309503
10
-105.99999904632448
20
-0.12500028610229474
10
-105.99999904632448
20
-27.825000286102295
42
0.41421356237309503
10
-104.49999904632448
20
-29.325000286102298
0
LWPOLYLINE
5
101
100
AcDbEntity
8
0
100
AcDbPolyline
90
4
70
1
43
0.0
10
-52.03655773960341
20
9.3834116149687574
10
-47.03655773960341
20
9.3834116149687574
42
-0.99999999999999989
10
-47.03655773960341
20
6.1334116149687601
10
-52.03655773960341
20
6.1334116149687601
42
-0.99999999999999989
0
LWPOLYLINE
5
102
100
AcDbEntity
8
0
100
AcDbPolyline
90
4
70
1
43
0.0
10
-83.036557739602799
20
40.383411614968388
10
-78.036557739602785
20
40.383411614968381
42
-0.99999999999999989
10
-78.036557739602785
20
37.133411614968381
10
-83.036557739602799
20
37.133411614968381
42
-0.99999999999999989
0
LWPOLYLINE
5
103
100
AcDbEntity
8
0
100
AcDbPolyline
90
4
70
1
43
0.0
10
-83.036557739602799
20
9.3834116149687539
10
-78.036557739602785
20
9.3834116149687539
42
-0.99999999999999989
10
-78.036557739602785
20
6.1334116149687556
10
-83.036557739602799
20
6.1334116149687556
42
-0.99999999999999989
0
LWPOLYLINE
5
104
100
AcDbEntity
8
0
100
AcDbPolyline
90
4
70
1
43
0.0
10
-52.03655773960341
20
40.383411614968388
10
-47.03655773960341
20
40.383411614968381
42
-0.99999999999999989
10
-47.03655773960341
20
37.133411614968381
10
-52.03655773960341
20
37.133411614968381
42
-0.99999999999999989
0
LWPOLYLINE
5
105
100
AcDbEntity
8
0
100
AcDbPolyline
90
4
70
1
43
0.0
10
-62.536557739602955
20
11.258411614968558
10
-67.536557739603239
20
11.258411614968566
42
-0.99999999999999989
10
-67.536557739602955
20
35.258411614968573
10
-62.536557739602955
20
35.258411614968537
42
-0.99999999999999989
0
CIRCLE
5
106
100
AcDbEntity
8
0
100
AcDbCircle
10
37.536557739604731
20
9.708411614969739
30
1.9073457990792519e-06
40
1.6000000000000014
210
1.7133072785268843e-30
220
-1.7491258961951367e-32
230
-1
0
CIRCLE
5
107
100
AcDbEntity
8
0
100
AcDbCircle
10
37.536557739604795
20
39.178411614969527
30
1.9073457990792519e-06
40
1.6000000000000014
210
1.7133072785268843e-30
220
-1.7491258961951367e-32
230
-1
0
CIRCLE
5
108
100
AcDbEntity
8
0
100
AcDbCircle
10
96.99999904632557
20
9.4349997138977049
30
1.9073461476892817e-06
40
2.5499999999999998
210
7.8886090522101181e-31
220
4.7197160946034795e-40
230
-1
0
CIRCLE
5
109
100
AcDbEntity
8
0
100
AcDbCircle
10
90.999999046324476
20
-14.325000286102295
30
1.9073461476892817e-06
40
3.0499999999999998
210
7.8886090522101181e-31
220
4.7197160946034795e-40
230
-1
0
CIRCLE
5
110
100
AcDbEntity
8
0
100
AcDbCircle
10
120.99999904632448
20
33.674999713897705
30
1.9073461476892817e-06
40
3.0499999999999998
210
7.8886090522101181e-31
220
4.7197160946034795e-40
230
-1
0
CIRCLE
5
111
100
AcDbEntity
8
0
100
AcDbCircle
10
120.99999904632448
20
10.674999713897705
30
1.9073461476892817e-06
40
3.0499999999999998
210
7.8886090522101181e-31
220
4.7197160946034795e-40
230
-1
0
CIRCLE
5
112
100
AcDbEntity
8
0
100
AcDbCircle
10
96.99999904632557
20
34.914999713897707
30
1.9073461476892817e-06
40
2.5499999999999998
210
7.8886090522101181e-31
220
4.7197160946034795e-40
230
-1
0
CIRCLE
5
113
100
AcDbEntity
8
0
100
AcDbCircle
10
53.468901740267221
20
-14.325000286102277
30
1.9073461476892817e-06
40
3.0500000000000016
210
7.8886090522101181e-31
220
4.7197160946034795e-40
230
-1
0
ENDSEC
0
SECTION
2
OBJECTS
0
DICTIONARY
5
C
100
AcDbDictionary
3
ACAD_GROUP
350
D
3
ACAD_MLINESTYLE
350
17
0
DICTIONARY
5
D
100
AcDbDictionary
0
DICTIONARY
5
1A
330
C
100
AcDbDictionary
0
DICTIONARY
5
17
100
AcDbDictionary
0
ENDSEC
0
EOF
